HIERARCHY
ROOT Hips
{
  OFFSET 49.2189 50.5885 6.07016
  CHANNELS 6 Xposition Yposition Zposition Zrotation Xrotation Yrotation
  JOINT spine
  {
    OFFSET 0 8.81705 0.507024
    CHANNELS 3 Zrotation Xrotation Yrotation
    JOINT spine1
    {
      OFFSET 0 10.7766 0
      CHANNELS 3 Zrotation Xrotation Yrotation
      JOINT spine2
      {
        OFFSET 0 10.3259 0
        CHANNELS 3 Zrotation Xrotation Yrotation
        JOINT Neck
        {
          OFFSET 0 26.511 1.26395
          CHANNELS 3 Zrotation Xrotation Yrotation
          JOINT Head
          {
            OFFSET 0 8.00966 0
            CHANNELS 3 Zrotation Xrotation Yrotation
            End Site
            {
              OFFSET 0 19.3879 -6.39386
            }
          }
        }
        JOINT RightShoulder
        {
          OFFSET -4.34795 11.1512 -0.605422
          CHANNELS 3 Zrotation Xrotation Yrotation
          JOINT RightArm
          {
            OFFSET 0 14.6258 0
            CHANNELS 3 Zrotation Xrotation Yrotation
            JOINT RightArmRoll
            {
              OFFSET 0 7.3834 0
              CHANNELS 3 Zrotation Xrotation Yrotation
              JOINT RightForeArm
              {
                OFFSET 0 21.5052 0
                CHANNELS 3 Zrotation Xrotation Yrotation
                JOINT RightForeArmRoll
                {
                  OFFSET 0 8.28532 0
                  CHANNELS 3 Zrotation Xrotation Yrotation
                  JOINT RightHand
                  {
                    OFFSET 0 16.6268 0
                    CHANNELS 3 Zrotation Xrotation Yrotation
                    End Site
                    {
                      OFFSET 0 0 0
                    }
                  }
                }
              }
            }
          }
        }
        JOINT LeftShoulder
        {
          OFFSET 4.34795 11.1512 -0.605422
          CHANNELS 3 Zrotation Xrotation Yrotation
          JOINT LeftArm
          {
            OFFSET 0 14.6258 0
            CHANNELS 3 Zrotation Xrotation Yrotation
            JOINT LeftArmRoll
            {
              OFFSET 0 7.3834 0
              CHANNELS 3 Zrotation Xrotation Yrotation
              JOINT LeftForeArm
              {
                OFFSET 0 21.5052 0
                CHANNELS 3 Zrotation Xrotation Yrotation
                JOINT LeftForeArmRoll
                {
                  OFFSET 0 8.28532 0
                  CHANNELS 3 Zrotation Xrotation Yrotation
                  JOINT LeftHand
                  {
                    OFFSET 0 16.6268 0
                    CHANNELS 3 Zrotation Xrotation Yrotation
                    End Site
                    {
                      OFFSET 0 0 0
                    }
                  }
                }
              }
            }
          }
        }
      }
    }
  }
  JOINT RightUpLeg
  {
    OFFSET -7.8151 -1.43309 -1.20217
    CHANNELS 3 Zrotation Xrotation Yrotation
    JOINT RightUpLegRoll
    {
      OFFSET 0 19.4959 0
      CHANNELS 3 Zrotation Xrotation Yrotation
      JOINT RightLeg
      {
        OFFSET 0 -24.1427 0
        CHANNELS 3 Zrotation Xrotation Yrotation
        JOINT RightLegRoll
        {
          OFFSET 0 24.2217 0
          CHANNELS 3 Zrotation Xrotation Yrotation
          JOINT RightFoot
          {
            OFFSET 0 20.1605 0
            CHANNELS 3 Zrotation Xrotation Yrotation
            JOINT RightToeBase
            {
              OFFSET 0 16.8532 0
              CHANNELS 3 Zrotation Xrotation Yrotation
              End Site
              {
                OFFSET 0.00714343 8.16187 -0.94078
              }
            }
          }
        }
      }
    }
  }
  JOINT LeftUpLeg
  {
    OFFSET 7.8151 -1.43309 -1.20217
    CHANNELS 3 Zrotation Xrotation Yrotation
    JOINT LeftUpLegRoll
    {
      OFFSET 0 19.496 0
      CHANNELS 3 Zrotation Xrotation Yrotation
      JOINT LeftLeg
      {
        OFFSET 0 24.1426 0
        CHANNELS 3 Zrotation Xrotation Yrotation
        JOINT LeftLegRoll
        {
          OFFSET 0 24.4456 0
          CHANNELS 3 Zrotation Xrotation Yrotation
          JOINT LeftFoot
          {
            OFFSET 0 19.9366 0
            CHANNELS 3 Zrotation Xrotation Yrotation
            JOINT LeftToeBase
            {
              OFFSET 0 16.8532 0
              CHANNELS 3 Zrotation Xrotation Yrotation
              End Site
              {
                OFFSET -0.0320138 8.16187 -0.94078
              }
            }
          }
        }
      }
    }
  }
}
MOTION
Frames: 9
Frame Time: 0.00208333
48.5074 100.709 41.9595 0.10687 -3.30535 1.24427 0.266392 -2.03028 -0.0925678 0.518008 -0.0582737 -0.210135 0.520699 1.58677 -0.218863 -6.15056 33.0477 4.11615 -1.31409 -10.163 1.30396 65.3134 -0.226873 -0.957842 109.127 20.373 10.3012 -4.32889e-006 4.07565e-008 8.27355e-007 14.0664 0.101274 -0.384216 1.13335e-005 4.34086e-006 -3.02689 8.02894 -4.95143 0.697696 -62.5136 -5.39975 3.58087 -112.929 15.8087 -0.675226 -4.0162e-006 -7.02984e-007 1.76949e-006 -13.5686 4.10009 0.812574 8.20921e-006 -2.40974e-006 3 -8.02889 -4.95145 -0.697703 177.079 -1.33931 0.665755 180 7.01521e-015 178.815 178.423 10.0572 179.626 3.99492e-006 -3.99231e-006 0.18449 -20.0729 69.6287 21.0125 8.17053 25.868 -2.62462 -176.461 -1.66042 1.78411 4.54188e-006 -4.6773e-006 -1.18412 -1.95552 -9.73463 0.217759 -1.84252e-006 -1.61573e-006 -0.19777 20.2845 69.7731 -21.1515 -8.17725 25.8599 2.64181 
48.5283 100.689 41.9104 0.106298 -3.30796 1.24505 0.267888 -2.03054 -0.092739 0.521843 -0.0587884 -0.210627 0.524542 1.58625 -0.219419 -6.21016 33.1078 4.13839 -1.28777 -10.1687 1.30326 65.2908 -0.201434 -0.941582 109.139 20.3413 10.3344 -4.32889e-006 4.07565e-008 8.27355e-007 14.0472 0.101282 -0.387335 1.13335e-005 4.34086e-006 -3.02689 8.02894 -4.95143 0.697696 -62.5571 -5.3799 3.57215 -112.87 15.7809 -0.71541 -4.0162e-006 -7.02984e-007 1.76949e-006 -13.5682 4.08929 0.810534 8.20921e-006 -2.40974e-006 3 -8.02889 -4.95145 -0.697703 177.068 -1.35686 0.686038 180 7.01521e-015 178.815 178.393 10.0121 179.63 3.99492e-006 -3.99231e-006 0.182517 -20.0425 69.5962 20.9799 8.17058 25.8688 -2.62328 -176.459 -1.66931 1.7812 4.54188e-006 -4.6773e-006 -1.18412 -1.95765 -9.7171 0.217385 -1.84252e-006 -1.61573e-006 -0.196918 20.2717 69.7602 -21.1384 -8.1773 25.8607 2.64082 
48.5197 100.693 41.9166 0.105686 -3.31084 1.24564 0.269487 -2.03078 -0.0929073 0.525913 -0.0592719 -0.211123 0.528621 1.58577 -0.219984 -6.27291 33.1682 4.16157 -1.25889 -10.1753 1.30263 65.2663 -0.17522 -0.924703 109.153 20.3093 10.3679 -4.32889e-006 4.07565e-008 8.27355e-007 14.0273 0.101291 -0.390487 1.13335e-005 4.34086e-006 -3.0269 8.02894 -4.95143 0.697696 -62.6025 -5.35941 3.56316 -112.809 15.753 -0.75619 -4.0162e-006 -7.02984e-007 1.76949e-006 -13.5678 4.0787 0.808499 8.20921e-006 -2.40974e-006 3 -8.02889 -4.95145 -0.697703 177.055 -1.37627 0.708604 180 7.01521e-015 178.815 178.359 9.9626 179.634 3.99492e-006 -3.99231e-006 0.180353 -20.0093 69.5604 20.9442 8.17063 25.8696 -2.62172 -176.456 -1.67964 1.77794 4.54188e-006 -4.6773e-006 -1.18412 -1.9601 -9.6973 0.216966 -1.84252e-006 -1.61573e-006 -0.195976 20.2576 69.7459 -21.1238 -8.17736 25.8616 2.63965 
48.4973 100.704 41.9484 0.105046 -3.3139 1.2461 0.271157 -2.031 -0.0930737 0.530147 -0.0597336 -0.211621 0.532864 1.5853 -0.220554 -6.33789 33.2289 4.18543 -1.22822 -10.1824 1.30207 65.2406 -0.148465 -0.90739 109.168 20.2771 10.4015 -4.32889e-006 4.07565e-008 8.27355e-007 14.007 0.1013 -0.39366 1.13335e-005 4.34086e-006 -3.0269 8.02894 -4.95143 0.697696 -62.6491 -5.33847 3.554 -112.747 15.7251 -0.797384 -4.0162e-006 -7.02984e-007 1.76949e-006 -13.5676 4.06825 0.806468 8.20921e-006 -2.40974e-006 3 -8.02889 -4.95145 -0.697703 177.04 -1.39699 0.732767 180 7.01521e-015 178.815 178.324 9.90999 179.639 3.99492e-006 -3.99231e-006 0.178054 -19.974 69.5223 20.9064 8.1707 25.8706 -2.62 -176.454 -1.691 1.77442 4.54188e-006 -4.6773e-006 -1.18412 -1.96279 -9.67592 0.216517 -1.84252e-006 -1.61573e-006 -0.194971 20.2426 69.7306 -21.1082 -8.17743 25.8625 2.63833 
48.5087 100.702 41.9328 0.104391 -3.31707 1.24649 0.272867 -2.03123 -0.093239 0.534475 -0.0601828 -0.212121 0.537203 1.58485 -0.221128 -6.40418 33.2898 4.20968 -1.19652 -10.1898 1.30155 65.2142 -0.1214 -0.889829 109.183 20.2446 10.4352 -4.32889e-006 4.07565e-008 8.27355e-007 13.9864 0.101309 -0.396847 1.13335e-005 4.34086e-006 -3.0269 8.02894 -4.95143 0.697696 -62.6964 -5.31727 3.54473 -112.684 15.6971 -0.838809 -4.0162e-006 -7.02984e-007 1.76949e-006 -13.5673 4.05788 0.80444 8.20921e-006 -2.40974e-006 3 -8.02889 -4.95145 -0.697703 177.026 -1.41846 0.757844 180 7.01521e-015 178.815 178.287 9.85566 179.643 3.99492e-006 -3.99231e-006 0.175679 -19.9378 69.483 20.8675 8.17077 25.8716 -2.61819 -176.451 -1.70293 1.77076 4.54188e-006 -4.6773e-006 -1.18412 -1.96561 -9.65364 0.21605 -1.84252e-006 -1.61573e-006 -0.19393 20.2271 69.7147 -21.0922 -8.1775 25.8636 2.63695 
48.5055 100.716 41.9466 0.103732 -3.32027 1.24687 0.274588 -2.03145 -0.093404 0.538827 -0.0606289 -0.212622 0.541564 1.5844 -0.221703 -6.47083 33.3507 4.23407 -1.16457 -10.1974 1.30103 65.1875 -0.094258 -0.872206 109.199 20.2122 10.4689 -4.32889e-006 4.07565e-008 8.27355e-007 13.9658 0.101318 -0.400036 1.13335e-005 4.34086e-006 -3.02691 8.02894 -4.95143 0.697696 -62.7439 -5.296 3.53544 -112.622 15.6691 -0.880283 -4.0162e-006 -7.02984e-007 1.76949e-006 -13.5671 4.04753 0.802412 8.20921e-006 -2.40974e-006 3 -8.02889 -4.95145 -0.697703 177.011 -1.44012 0.783149 180 7.01521e-015 178.815 178.249 9.80087 179.648 3.99492e-006 -3.99231e-006 0.173284 -19.9014 69.4433 20.8284 8.17084 25.8726 -2.61636 -176.448 -1.71501 1.76707 4.54188e-006 -4.6773e-006 -1.18412 -1.96846 -9.63113 0.215579 -1.84252e-006 -1.61573e-006 -0.192879 20.2115 69.6987 -21.076 -8.17757 25.8646 2.63554 
48.504 100.713 41.9412 0.103081 -3.32342 1.24727 0.276289 -2.03167 -0.0935695 0.543132 -0.0610812 -0.213122 0.545879 1.58395 -0.222276 -6.53693 33.4115 4.25831 -1.13313 -10.2047 1.3005 65.1612 -0.0672701 -0.854708 109.215 20.1798 10.5026 -4.32889e-006 4.07565e-008 8.27355e-007 13.9452 0.101327 -0.40322 1.13335e-005 4.34086e-006 -3.02691 8.02894 -4.95143 0.697696 -62.791 -5.27486 3.5262 -112.559 15.6411 -0.921625 -4.0162e-006 -7.02984e-007 1.76949e-006 -13.5668 4.03714 0.800383 8.20921e-006 -2.40974e-006 3 -8.02889 -4.95145 -0.697703 176.996 -1.4614 0.807999 180 7.01521e-015 178.815 178.213 9.74697 179.653 3.99492e-006 -3.99231e-006 0.170928 -19.8658 69.4042 20.7902 8.17091 25.8736 -2.61457 -176.445 -1.72679 1.76344 4.54188e-006 -4.6773e-006 -1.18412 -1.97125 -9.60908 0.215116 -1.84252e-006 -1.61573e-006 -0.191847 20.1962 69.6829 -21.0601 -8.17764 25.8656 2.63417 
48.5034 100.705 41.9413 0.10245 -3.32643 1.24778 0.277938 -2.0319 -0.0937365 0.547319 -0.0615492 -0.213619 0.550075 1.58348 -0.222845 -6.60153 33.4721 4.28214 -1.10297 -10.2117 1.29992 65.1358 -0.0406687 -0.837519 109.23 20.1476 10.5361 -4.32889e-006 4.07565e-008 8.27355e-007 13.925 0.101336 -0.406387 1.13335e-005 4.34086e-006 -3.02691 8.02894 -4.95143 0.697696 -62.8373 -5.25404 3.51709 -112.498 15.6132 -0.962653 -4.0162e-006 -7.02984e-007 1.76949e-006 -13.5666 4.02665 0.798351 8.20921e-006 -2.40974e-006 3 -8.02889 -4.95145 -0.697703 176.983 -1.48174 0.831708 180 7.01521e-015 178.815 178.178 9.69525 179.657 3.99492e-006 -3.99231e-006 0.168668 -19.8317 69.3668 20.7536 8.17098 25.8746 -2.61289 -176.442 -1.73786 1.76 4.54188e-006 -4.6773e-006 -1.18412 -1.97387 -9.58815 0.214676 -1.84252e-006 -1.61573e-006 -0.19086 20.1815 69.6679 -21.0449 -8.17771 25.8666 2.6329 
48.5014 100.707 41.9414 0.10185 -3.32923 1.24842 0.279506 -2.03214 -0.0939057 0.551319 -0.062042 -0.214114 0.554083 1.58299 -0.223408 -6.66371 33.5324 4.30527 -1.07486 -10.218 1.29927 65.1118 -0.0146858 -0.820827 109.243 20.1157 10.5694 -4.32889e-006 4.07565e-008 8.27355e-007 13.9054 0.101345 -0.409529 1.13335e-005 4.34086e-006 -3.02692 8.02894 -4.95143 0.697696 -62.882 -5.23374 3.50819 -112.438 15.5853 -1.00319 -4.0162e-006 -7.02984e-007 1.76949e-006 -13.5662 4.016 0.796315 8.20921e-006 -2.40974e-006 3 -8.02889 -4.95145 -0.697703 176.97 -1.5006 0.853592 180 7.01521e-015 178.815 178.145 9.64707 179.661 3.99492e-006 -3.99231e-006 0.166561 -19.8001 69.3319 20.7196 8.17103 25.8754 -2.6114 -176.44 -1.74776 1.75684 4.54188e-006 -4.6773e-006 -1.18412 -1.97622 -9.56904 0.214272 -1.84252e-006 -1.61573e-006 -0.189945 20.168 69.654 -21.0309 -8.17777 25.8674 2.63178 
